REM MD5 0a66622840f575a1237d7b7f9b98176a
FILE "Future GPX Cyber Formula - Aratanaru Chousensha (Japan) (Disc 2).bin" BINARY
  TRACK 01 MODE2/2352
    INDEX 01 00:00:00
  TRACK 02 AUDIO
    INDEX 00 56:53:12
    INDEX 01 56:55:12
  TRACK 03 AUDIO
    INDEX 00 57:08:33
    INDEX 01 57:10:33
  TRACK 04 AUDIO
    INDEX 00 58:13:58
    INDEX 01 58:15:58
REM LEADOUT 61:19:44
